<?xml version="1.0" encoding="UTF-8"?>
<svg width="24" height="24" viewBox="-3195 -3703 24 24" xmlns="http://www.w3.org/2000/svg"><g fill="#000" fill-rule="evenodd" transform="translate(-3194 -3692)"><path d="M12.05 8.85c4.67 0 8.45-1.76 8.45-3.94 0-2.17-3.78-3.93-8.45-3.93-4.66 0-8.44 1.76-8.44 3.93 0 2.18 3.78 3.94 8.44 3.94zm-.26 2.2c5.4 0 9.78-2.47 9.78-5.52 0-3.05-4.38-5.53-9.78-5.53C6.39 0 2 2.48 2 5.53c0 3.05 4.38 5.53 9.79 5.53z"/><ellipse stroke="#FFF" stroke-width="1.4" cx="15.94" cy="9.58" rx="2.94" ry="2.58"/><path d="M2.5 8.18C3.88 8.18 5 7.25 5 6.1 5 4.94 3.88 4 2.5 4S0 4.94 0 6.1c0 1.15 1.12 2.08 2.5 2.08z" stroke="#FFF" stroke-width="1.3"/><path d="M19.38 4.65c1.3 0 2.37-.9 2.37-2s-1.06-2-2.38-2c-1.3 0-2.37.9-2.37 2s1.06 2 2.38 2z" stroke="#FFF"/></g><path d="M-3181.56-3703c-3 0-5.44 2.74-5.44 6.13 0 3.38 3.02 8.16 5.44 9.53 2.42-1.37 5.45-6.15 5.45-9.53 0-3.39-2.44-6.13-5.45-6.13zm0 8.5c-1.5 0-2.72-1.36-2.72-3.05 0-1.7 1.22-3.07 2.72-3.07 1.5 0 2.73 1.37 2.73 3.07 0 1.69-1.22 3.06-2.73 3.06z" fill-rule="evenodd"/></svg>