<svg xmlns="http://www.w3.org/2000/svg" width="24" height="24" viewBox="0 0 24 24">
    <g fill-rule="evenodd">
        <path d="M19.277 20.66c2.02-1.01 3.293-2.486 3.293-4.13 0-.036 0-.07-.002-.107-.397.25-.858.428-1.358.516-.474.82-1.503 1.536-2.89 2.05.494.453.837 1.03.957 1.67zm-7.134 1.388c-3-.11-5.63-.984-7.288-2.28.735-.263 1.343-.735 1.722-1.328 1.406.783 3.452 1.307 5.763 1.396-.218.407-.34.86-.34 1.338 0 .303.05.597.143.874zm5.902-10.182c-1.518-.548-3.32-.866-5.255-.866-3.813 0-7.123 1.237-8.738 3.037.43.06.836.186 1.2.367 1.27-1.423 4.283-2.424 7.798-2.424 1.608 0 3.11.21 4.39.57.163-.252.367-.482.605-.684zM3.5 19c1.38 0 2.5-.89 2.5-1.99C6 15.9 4.88 15 3.5 15S1 15.9 1 17.01C1 18.11 2.12 19 3.5 19zm17-3c1.38 0 2.5-.89 2.5-1.99C23 12.9 21.88 12 20.5 12s-2.5.9-2.5 2.01c0 1.1 1.12 1.99 2.5 1.99zm-4.838 7.264c1.444 0 2.616-.937 2.616-2.095 0-1.17-1.172-2.117-2.616-2.117-1.444 0-2.616.947-2.616 2.116 0 1.157 1.172 2.094 2.616 2.094z"/>
        <path d="M13.44 0C10.44 0 8 2.74 8 6.13c0 3.38 3.02 8.16 5.44 9.53 2.42-1.37 5.45-6.15 5.45-9.53 0-3.39-2.44-6.13-5.45-6.13zm0 8.5c-1.5 0-2.72-1.36-2.72-3.05 0-1.7 1.22-3.07 2.72-3.07 1.5 0 2.73 1.37 2.73 3.07 0 1.69-1.22 3.06-2.73 3.06V8.5z"/>
    </g>
</svg>
